<?xml version="1.0" encoding="UTF-8" standalone="no"?>
<!DOCTYPE svg PUBLIC "-//W3C//DTD SVG 1.1//EN"
 "http://www.w3.org/Graphics/SVG/1.1/DTD/svg11.dtd">
<!-- Generated by graphviz version 2.40.1 (20161225.0304)
 -->
<!-- Title: testdb_broken_query Pages: 1 -->
<svg width="463pt" height="240pt"
 viewBox="0.00 0.00 463.28 240.00" xmlns="http://www.w3.org/2000/svg" xmlns:xlink="http://www.w3.org/1999/xlink">
<g id="graph0" class="graph" transform="scale(1 1) rotate(0) translate(4 236)">
<title>testdb_broken_query</title>
<polygon fill="#ffffff" stroke="transparent" points="-4,4 -4,-236 459.2791,-236 459.2791,4 -4,4"/>
<text text-anchor="middle" x="227.6396" y="-208.8" font-family="Times,serif" font-size="24.00" fill="#000000">testdb_broken_query</text>
<!-- 2 -->
<g id="00002" class="node">
<title>2</title>
<g id="a_00002"><a xlink:href="../Tables.html#00002" xlink:title="Family (Table)">
<path fill="#a7c3eb" stroke="#000000" d="M455.2791,-59.7273C455.2791,-61.5331 442.7291,-63 427.2791,-63 411.8292,-63 399.2791,-61.5331 399.2791,-59.7273 399.2791,-59.7273 399.2791,-30.2727 399.2791,-30.2727 399.2791,-28.4669 411.8292,-27 427.2791,-27 442.7291,-27 455.2791,-28.4669 455.2791,-30.2727 455.2791,-30.2727 455.2791,-59.7273 455.2791,-59.7273"/>
<path fill="none" stroke="#000000" d="M455.2791,-59.7273C455.2791,-57.9214 442.7291,-56.4545 427.2791,-56.4545 411.8292,-56.4545 399.2791,-57.9214 399.2791,-59.7273"/>
<text text-anchor="middle" x="427.2791" y="-41.3" font-family="Times,serif" font-size="14.00" fill="#000000">Family</text>
</a>
</g>
</g>
<!-- 6 -->
<g id="00006" class="node">
<title>6</title>
<g id="a_00006"><a xlink:href="../Tables.html#00006" xlink:title="Plant (Table)">
<path fill="#a7c3eb" stroke="#000000" d="M362.2791,-86.7273C362.2791,-88.5331 350.1773,-90 335.2791,-90 320.381,-90 308.2791,-88.5331 308.2791,-86.7273 308.2791,-86.7273 308.2791,-57.2727 308.2791,-57.2727 308.2791,-55.4669 320.381,-54 335.2791,-54 350.1773,-54 362.2791,-55.4669 362.2791,-57.2727 362.2791,-57.2727 362.2791,-86.7273 362.2791,-86.7273"/>
<path fill="none" stroke="#000000" d="M362.2791,-86.7273C362.2791,-84.9214 350.1773,-83.4545 335.2791,-83.4545 320.381,-83.4545 308.2791,-84.9214 308.2791,-86.7273"/>
<text text-anchor="middle" x="335.2791" y="-68.3" font-family="Times,serif" font-size="14.00" fill="#000000">Plant</text>
</a>
</g>
</g>
<!-- 6&#45;&gt;2 -->
<g id="edge1" class="edge">
<title>6&#45;&gt;2</title>
<g id="a_edge1"><a xlink:title="Plant &#45;&gt; Family">
<path fill="none" stroke="#000000" d="M362.3846,-64.0451C370.8701,-61.5548 380.3938,-58.7598 389.4769,-56.0941"/>
<polygon fill="#000000" stroke="#000000" points="390.4804,-59.4473 399.09,-53.2729 388.5091,-52.7306 390.4804,-59.4473"/>
</a>
</g>
</g>
<!-- 10 -->
<g id="00010" class="node">
<title>10</title>
<g id="a_00010"><a xlink:href="../Tables.html#00010" xlink:title="view1 (View)">
<polygon fill="none" stroke="#000000" points="269.1815,-126 250.4071,-144 212.8582,-144 194.0837,-126 212.8582,-108 250.4071,-108 269.1815,-126"/>
<text text-anchor="middle" x="231.6326" y="-122.3" font-family="Times,serif" font-size="14.00" fill="#000000">view1</text>
</a>
</g>
</g>
<!-- 10&#45;&gt;6 -->
<g id="edge2" class="edge">
<title>10&#45;&gt;6</title>
<g id="a_edge2"><a xlink:title="view1 &#45;&gt; Plant">
<path fill="none" stroke="#000000" d="M256.1954,-113.2028C269.4494,-106.2974 286.029,-97.6594 300.5795,-90.0785"/>
<ellipse fill="#000000" stroke="#000000" cx="304.4278" cy="-88.0736" rx="4" ry="4"/>
</a>
</g>
</g>
<!-- 12 -->
<g id="00012" class="node">
<title>12</title>
<g id="a_00012"><a xlink:href="../Queries.html#00012" xlink:title="PlantenVanPlanten (Query)">
<ellipse fill="none" stroke="#000000" cx="77.9931" cy="-180" rx="77.9862" ry="18"/>
<text text-anchor="middle" x="77.9931" y="-176.3" font-family="Times,serif" font-size="14.00" fill="#000000">PlantenVanPlanten</text>
</a>
</g>
</g>
<!-- 13 -->
<g id="00013" class="node">
<title>13</title>
<g id="a_00013"><a xlink:href="../Queries.html#00013" xlink:title="vwPlant (Query)">
<ellipse fill="none" stroke="#000000" cx="231.6326" cy="-72" rx="39.7935" ry="18"/>
<text text-anchor="middle" x="231.6326" y="-68.3" font-family="Times,serif" font-size="14.00" fill="#000000">vwPlant</text>
</a>
</g>
</g>
<!-- 13&#45;&gt;6 -->
<g id="edge3" class="edge">
<title>13&#45;&gt;6</title>
<g id="a_edge3"><a xlink:title="vwPlant &#45;&gt; Plant">
<path fill="none" stroke="#000000" d="M271.4087,-72C280.7621,-72 290.6698,-72 299.8193,-72"/>
<ellipse fill="#000000" stroke="#000000" cx="303.971" cy="-72" rx="4" ry="4"/>
</a>
</g>
</g>
<!-- 17 -->
<g id="00017" class="node">
<title>17</title>
<g id="a_00017"><a xlink:href="../ControlsByForm.html#00017" xlink:title="Family (Form)">
<polygon fill="#ffcc99" stroke="#000000" points="363.2791,-36 307.2791,-36 307.2791,0 363.2791,0 363.2791,-36"/>
<text text-anchor="middle" x="335.2791" y="-14.3" font-family="Times,serif" font-size="14.00" fill="#000000">Family</text>
</a>
</g>
</g>
<!-- 17&#45;&gt;2 -->
<g id="edge4" class="edge">
<title>17&#45;&gt;2</title>
<g id="a_edge4"><a xlink:title="Family &#45;&gt; Family">
<path fill="none" stroke="#ff0000" d="M363.3821,-26.2476C371.5983,-28.6589 380.717,-31.335 389.4324,-33.8928"/>
<polygon fill="#ff0000" stroke="#ff0000" points="400.1577,-32.8717 397.9048,-40.548 390.2286,-38.2951 392.4815,-30.6189 400.1577,-32.8717"/>
<polyline fill="none" stroke="#ff0000" points="391.355,-34.457 389.436,-33.8938 "/>
</a>
</g>
</g>
<!-- 22 -->
<g id="00022" class="node">
<title>22</title>
<g id="a_00022"><a xlink:href="../ControlsByForm.html#00022" xlink:title="Plant (Form)">
<polygon fill="#ffcc99" stroke="#000000" points="258.6326,-36 204.6326,-36 204.6326,0 258.6326,0 258.6326,-36"/>
<text text-anchor="middle" x="231.6326" y="-14.3" font-family="Times,serif" font-size="14.00" fill="#000000">Plant</text>
</a>
</g>
</g>
<!-- 22&#45;&gt;6 -->
<g id="edge5" class="edge">
<title>22&#45;&gt;6</title>
<g id="a_edge5"><a xlink:title="Plant &#45;&gt; Plant">
<path fill="none" stroke="#ff0000" d="M258.8645,-32.1879C271.2425,-38.6368 286.057,-46.3552 299.3328,-53.2719"/>
<polygon fill="#ff0000" stroke="#ff0000" points="310.0773,-54.3595 306.3809,-61.4543 299.286,-57.7579 302.9825,-50.663 310.0773,-54.3595"/>
<polyline fill="none" stroke="#ff0000" points="301.1343,-54.2104 299.3606,-53.2863 "/>
</a>
</g>
</g>
<!-- 29 -->
<g id="00029" class="node">
<title>29</title>
<g id="a_00029"><a xlink:href="../ControlsByForm.html#00029" xlink:title="Plant invoeren (Form)">
<polygon fill="#ffcc99" stroke="#000000" points="125.4931,-90 30.4931,-90 30.4931,-54 125.4931,-54 125.4931,-90"/>
<text text-anchor="middle" x="77.9931" y="-68.3" font-family="Times,serif" font-size="14.00" fill="#000000">Plant invoeren</text>
</a>
</g>
</g>
<!-- 29&#45;&gt;13 -->
<g id="edge6" class="edge">
<title>29&#45;&gt;13</title>
<g id="a_edge6"><a xlink:title="Plant invoeren &#45;&gt; vwPlant">
<path fill="none" stroke="#000000" d="M125.7634,-72C144.1732,-72 165.1933,-72 183.6254,-72"/>
<ellipse fill="#000000" stroke="#000000" cx="187.8934" cy="-72" rx="4" ry="4"/>
</a>
</g>
</g>
<!-- 33 -->
<g id="00033" class="node">
<title>33</title>
<g id="a_00033"><a xlink:href="../ControlsByForm.html#00033" xlink:title="view1 (Form)">
<polygon fill="#ffcc99" stroke="#000000" points="104.9931,-144 50.9931,-144 50.9931,-108 104.9931,-108 104.9931,-144"/>
<text text-anchor="middle" x="77.9931" y="-122.3" font-family="Times,serif" font-size="14.00" fill="#000000">view1</text>
</a>
</g>
</g>
<!-- 33&#45;&gt;10 -->
<g id="edge7" class="edge">
<title>33&#45;&gt;10</title>
<g id="a_edge7"><a xlink:title="view1 &#45;&gt; view1">
<path fill="none" stroke="#000000" d="M105.1071,-126C127.3389,-126 159.3042,-126 185.5425,-126"/>
<ellipse fill="#000000" stroke="#000000" cx="189.8406" cy="-126" rx="4" ry="4"/>
</a>
</g>
</g>
</g>
</svg>
