<?xml version="1.0" encoding="UTF-8" standalone="no"?>
<!DOCTYPE svg PUBLIC "-//W3C//DTD SVG 1.1//EN"
 "http://www.w3.org/Graphics/SVG/1.1/DTD/svg11.dtd">
<!-- Generated by graphviz version 2.40.1 (20161225.0304)
 -->
<!-- Title: testdb Pages: 1 -->
<svg width="402pt" height="186pt"
 viewBox="0.00 0.00 402.29 186.00" xmlns="http://www.w3.org/2000/svg" xmlns:xlink="http://www.w3.org/1999/xlink">
<g id="graph0" class="graph" transform="scale(1 1) rotate(0) translate(4 182)">
<title>testdb</title>
<polygon fill="#ffffff" stroke="transparent" points="-4,4 -4,-182 398.293,-182 398.293,4 -4,4"/>
<text text-anchor="middle" x="197.1465" y="-154.8" font-family="Times,serif" font-size="24.00" fill="#000000">testdb</text>
<!-- 2 -->
<g id="00002" class="node">
<title>2</title>
<g id="a_00002"><a xlink:href="../Tables.html#00002" xlink:title="Family (Table)">
<path fill="#a7c3eb" stroke="#000000" d="M394.293,-59.7273C394.293,-61.5331 381.7429,-63 366.293,-63 350.843,-63 338.293,-61.5331 338.293,-59.7273 338.293,-59.7273 338.293,-30.2727 338.293,-30.2727 338.293,-28.4669 350.843,-27 366.293,-27 381.7429,-27 394.293,-28.4669 394.293,-30.2727 394.293,-30.2727 394.293,-59.7273 394.293,-59.7273"/>
<path fill="none" stroke="#000000" d="M394.293,-59.7273C394.293,-57.9214 381.7429,-56.4545 366.293,-56.4545 350.843,-56.4545 338.293,-57.9214 338.293,-59.7273"/>
<text text-anchor="middle" x="366.293" y="-41.3" font-family="Times,serif" font-size="14.00" fill="#000000">Family</text>
</a>
</g>
</g>
<!-- 6 -->
<g id="00006" class="node">
<title>6</title>
<g id="a_00006"><a xlink:href="../Tables.html#00006" xlink:title="Plant (Table)">
<path fill="#a7c3eb" stroke="#000000" d="M301.293,-86.7273C301.293,-88.5331 289.1911,-90 274.293,-90 259.3948,-90 247.293,-88.5331 247.293,-86.7273 247.293,-86.7273 247.293,-57.2727 247.293,-57.2727 247.293,-55.4669 259.3948,-54 274.293,-54 289.1911,-54 301.293,-55.4669 301.293,-57.2727 301.293,-57.2727 301.293,-86.7273 301.293,-86.7273"/>
<path fill="none" stroke="#000000" d="M301.293,-86.7273C301.293,-84.9214 289.1911,-83.4545 274.293,-83.4545 259.3948,-83.4545 247.293,-84.9214 247.293,-86.7273"/>
<text text-anchor="middle" x="274.293" y="-68.3" font-family="Times,serif" font-size="14.00" fill="#000000">Plant</text>
</a>
</g>
</g>
<!-- 6&#45;&gt;2 -->
<g id="edge1" class="edge">
<title>6&#45;&gt;2</title>
<g id="a_edge1"><a xlink:title="Plant &#45;&gt; Family">
<path fill="none" stroke="#000000" d="M301.3984,-64.0451C309.8839,-61.5548 319.4077,-58.7598 328.4907,-56.0941"/>
<polygon fill="#000000" stroke="#000000" points="329.4942,-59.4473 338.1039,-53.2729 327.5229,-52.7306 329.4942,-59.4473"/>
</a>
</g>
</g>
<!-- 10 -->
<g id="00010" class="node">
<title>10</title>
<g id="a_00010"><a xlink:href="../Tables.html#00010" xlink:title="view1 (View)">
<polygon fill="none" stroke="#000000" points="208.1954,-126 189.4209,-144 151.872,-144 133.0976,-126 151.872,-108 189.4209,-108 208.1954,-126"/>
<text text-anchor="middle" x="170.6465" y="-122.3" font-family="Times,serif" font-size="14.00" fill="#000000">view1</text>
</a>
</g>
</g>
<!-- 10&#45;&gt;6 -->
<g id="edge2" class="edge">
<title>10&#45;&gt;6</title>
<g id="a_edge2"><a xlink:title="view1 &#45;&gt; Plant">
<path fill="none" stroke="#000000" d="M195.2093,-113.2028C208.4632,-106.2974 225.0428,-97.6594 239.5934,-90.0785"/>
<ellipse fill="#000000" stroke="#000000" cx="243.4417" cy="-88.0736" rx="4" ry="4"/>
</a>
</g>
</g>
<!-- 12 -->
<g id="00012" class="node">
<title>12</title>
<g id="a_00012"><a xlink:href="../Queries.html#00012" xlink:title="vwPlant (Query)">
<ellipse fill="none" stroke="#000000" cx="170.6465" cy="-72" rx="39.7935" ry="18"/>
<text text-anchor="middle" x="170.6465" y="-68.3" font-family="Times,serif" font-size="14.00" fill="#000000">vwPlant</text>
</a>
</g>
</g>
<!-- 12&#45;&gt;6 -->
<g id="edge3" class="edge">
<title>12&#45;&gt;6</title>
<g id="a_edge3"><a xlink:title="vwPlant &#45;&gt; Plant">
<path fill="none" stroke="#000000" d="M210.4225,-72C219.7759,-72 229.6837,-72 238.8331,-72"/>
<ellipse fill="#000000" stroke="#000000" cx="242.9848" cy="-72" rx="4" ry="4"/>
</a>
</g>
</g>
<!-- 16 -->
<g id="00016" class="node">
<title>16</title>
<g id="a_00016"><a xlink:href="../ControlsByForm.html#00016" xlink:title="Family (Form)">
<polygon fill="#ffcc99" stroke="#000000" points="302.293,-36 246.293,-36 246.293,0 302.293,0 302.293,-36"/>
<text text-anchor="middle" x="274.293" y="-14.3" font-family="Times,serif" font-size="14.00" fill="#000000">Family</text>
</a>
</g>
</g>
<!-- 16&#45;&gt;2 -->
<g id="edge4" class="edge">
<title>16&#45;&gt;2</title>
<g id="a_edge4"><a xlink:title="Family &#45;&gt; Family">
<path fill="none" stroke="#ff0000" d="M302.3959,-26.2476C310.6121,-28.6589 319.7308,-31.335 328.4462,-33.8928"/>
<polygon fill="#ff0000" stroke="#ff0000" points="339.1715,-32.8717 336.9187,-40.548 329.2424,-38.2951 331.4953,-30.6189 339.1715,-32.8717"/>
<polyline fill="none" stroke="#ff0000" points="330.3689,-34.457 328.4498,-33.8938 "/>
</a>
</g>
</g>
<!-- 21 -->
<g id="00021" class="node">
<title>21</title>
<g id="a_00021"><a xlink:href="../ControlsByForm.html#00021" xlink:title="Plant (Form)">
<polygon fill="#ffcc99" stroke="#000000" points="197.6465,-36 143.6465,-36 143.6465,0 197.6465,0 197.6465,-36"/>
<text text-anchor="middle" x="170.6465" y="-14.3" font-family="Times,serif" font-size="14.00" fill="#000000">Plant</text>
</a>
</g>
</g>
<!-- 21&#45;&gt;6 -->
<g id="edge5" class="edge">
<title>21&#45;&gt;6</title>
<g id="a_edge5"><a xlink:title="Plant &#45;&gt; Plant">
<path fill="none" stroke="#ff0000" d="M197.8784,-32.1879C210.2563,-38.6368 225.0708,-46.3552 238.3467,-53.2719"/>
<polygon fill="#ff0000" stroke="#ff0000" points="249.0912,-54.3595 245.3947,-61.4543 238.2999,-57.7579 241.9963,-50.663 249.0912,-54.3595"/>
<polyline fill="none" stroke="#ff0000" points="240.1481,-54.2104 238.3744,-53.2863 "/>
</a>
</g>
</g>
<!-- 28 -->
<g id="00028" class="node">
<title>28</title>
<g id="a_00028"><a xlink:href="../ControlsByForm.html#00028" xlink:title="Plant invoeren (Form)">
<polygon fill="#ffcc99" stroke="#000000" points="95,-90 0,-90 0,-54 95,-54 95,-90"/>
<text text-anchor="middle" x="47.5" y="-68.3" font-family="Times,serif" font-size="14.00" fill="#000000">Plant invoeren</text>
</a>
</g>
</g>
<!-- 28&#45;&gt;12 -->
<g id="edge6" class="edge">
<title>28&#45;&gt;12</title>
<g id="a_edge6"><a xlink:title="Plant invoeren &#45;&gt; vwPlant">
<path fill="none" stroke="#000000" d="M95.1116,-72C104.1282,-72 113.5664,-72 122.5964,-72"/>
<ellipse fill="#000000" stroke="#000000" cx="126.7507" cy="-72" rx="4" ry="4"/>
</a>
</g>
</g>
<!-- 32 -->
<g id="00032" class="node">
<title>32</title>
<g id="a_00032"><a xlink:href="../ControlsByForm.html#00032" xlink:title="view1 (Form)">
<polygon fill="#ffcc99" stroke="#000000" points="74.5,-144 20.5,-144 20.5,-108 74.5,-108 74.5,-144"/>
<text text-anchor="middle" x="47.5" y="-122.3" font-family="Times,serif" font-size="14.00" fill="#000000">view1</text>
</a>
</g>
</g>
<!-- 32&#45;&gt;10 -->
<g id="edge7" class="edge">
<title>32&#45;&gt;10</title>
<g id="a_edge7"><a xlink:title="view1 &#45;&gt; view1">
<path fill="none" stroke="#000000" d="M74.525,-126C89.2494,-126 107.8711,-126 124.7946,-126"/>
<ellipse fill="#000000" stroke="#000000" cx="128.9416" cy="-126" rx="4" ry="4"/>
</a>
</g>
</g>
</g>
</svg>
